<svg class="close" viewBox="0 0 800 800" fill="none" xmlns="http://www.w3.org/2000/svg">
    <path d="M768 0H32C14.3 0 0 14.3 0 32V768C0 785.7 14.3 800 32 800H768C785.7 800 800 785.7 800 768V32C800 14.3 785.7 0 768 0ZM564.1 545.9C568.5 551.1 564.8 559 558 559H499.1C494.4 559 489.9 556.9 486.8 553.3L400 449.8L313.2 553.3C310.2 556.9 305.7 559 300.9 559H242C235.2 559 231.5 551.1 235.9 545.9L358.2 400L235.9 254.1C234.914 252.941 234.282 251.523 234.078 250.016C233.874 248.508 234.107 246.973 234.749 245.594C235.392 244.215 236.416 243.049 237.701 242.234C238.987 241.42 240.479 240.992 242 241H300.9C305.6 241 310.1 243.1 313.2 246.7L400 350.2L486.8 246.7C489.8 243.1 494.3 241 499.1 241H558C564.8 241 568.5 248.9 564.1 254.1L441.8 400L564.1 545.9V545.9Z" fill="black"/>
</svg> 